PathFileType	3	(X/Y/Z)	running_2__view2_aligned.trc
DataRate	CameraRate	NumFrames	NumMarkers	Units	OrigDataRate	OrigDataStartFrame	OrigNumFrames
100.0	100.0	10	19	mm	100.0	4219	6434
Frame#	Time	pelvis			neck			head			hip_left			hip_right			knee_left			knee_right			ankle_left			ankle_right			heel_left			heel_right			toe_left			toe_right			shoulder_left			shoulder_right			elbow_left			elbow_right			wrist_left			wrist_right			
		X1	Y1	Z1	X2	Y2	Z2	X3	Y3	Z3	X4	Y4	Z4	X5	Y5	Z5	X6	Y6	Z6	X7	Y7	Z7	X8	Y8	Z8	X9	Y9	Z9	X10	Y10	Z10	X11	Y11	Z11	X12	Y12	Z12	X13	Y13	Z13	X14	Y14	Z14	X15	Y15	Z15	X16	Y16	Z16	X17	Y17	Z17	X18	Y18	Z18	X19	Y19	Z19	
4219	42.18000	1.663205	948.552139	261.237167	-12.562398	1495.749269	361.799053	-17.032524	1583.181972	511.254636	75.108683	950.251936	260.595800	-71.782276	946.852342	261.878563	113.486812	539.453090	369.002007	-76.718834	521.729810	302.194299	110.902051	228.025049	165.582312	-60.413316	172.191781	124.635943	105.182160	206.575637	120.276943	-56.031999	139.654288	81.465462	110.905142	99.149762	266.702195	-68.871052	76.041361	258.778248	143.530443	1462.690779	283.744404	-183.240253	1449.610878	334.683165	229.378816	1244.543805	120.277762	-267.280484	1194.716446	248.665348	254.555926	1107.398470	320.534787	-108.357042	1149.354585	433.171187
4220	42.19000	2.691696	946.995336	260.767091	-10.763867	1494.255470	360.923688	-14.858441	1581.884189	510.239628	76.130085	948.715506	259.882250	-70.746696	945.275166	261.651962	113.578510	538.065865	373.216679	-76.086146	519.978618	300.374786	110.431055	222.870678	175.683890	-60.766959	176.613504	111.408504	104.834106	200.073985	130.894326	-56.331621	145.974772	67.206518	110.386357	98.182090	281.137628	-69.554267	75.059326	240.586448	145.040147	1460.936075	281.702335	-181.660312	1447.725087	335.060154	230.413369	1242.452913	118.382357	-265.594343	1191.209628	251.193617	259.582968	1104.959822	319.056527	-105.392504	1147.585729	435.820321
4221	42.20000	3.720186	945.438533	260.297015	-8.965337	1492.761671	360.048324	-12.684359	1580.586406	509.224621	77.151486	947.179076	259.168699	-69.711117	943.697990	261.425361	113.670208	536.678640	377.431350	-75.453458	518.227427	298.555273	109.960058	217.716307	185.785468	-61.120602	181.035228	98.181064	104.486053	193.572333	141.511709	-56.631244	152.295256	52.947575	109.867572	97.214418	295.573061	-70.237482	74.077292	222.394648	146.549851	1459.181371	279.660266	-180.080370	1445.839297	335.437143	231.447923	1240.362021	116.486953	-263.908201	1187.702811	253.721885	264.610010	1102.521174	317.578268	-102.427966	1145.816873	438.469455
4222	42.21000	4.748677	943.881730	259.826940	-7.166806	1491.267871	359.172959	-10.510276	1579.288624	508.209613	78.172888	945.642645	258.455149	-68.675538	942.120814	261.198760	113.761905	535.291414	381.646022	-74.820770	516.476235	296.735760	109.489062	212.561936	195.887046	-61.474245	185.456951	84.953624	104.138000	187.070681	152.129092	-56.930866	158.615740	38.688631	109.348788	96.246745	310.008494	-70.920698	73.095258	204.202848	148.059555	1457.426666	277.618197	-178.500429	1443.953506	335.814132	232.482477	1238.271129	114.591548	-262.222059	1184.195993	256.250153	269.637052	1100.082526	316.100009	-99.463428	1144.048017	441.118589
4223	42.22000	5.777167	942.324927	259.356864	-5.368275	1489.774072	358.297595	-8.336194	1577.990841	507.194606	79.194290	944.106215	257.741599	-67.639958	940.543638	260.972159	113.853603	533.904189	385.860693	-74.188082	514.725044	294.916248	109.018066	207.407566	205.988624	-61.827888	189.878675	71.726185	103.789946	180.569029	162.746475	-57.230489	164.936224	24.429687	108.830003	95.279073	324.443927	-71.603913	72.113224	186.011048	149.569258	1455.671962	275.576127	-176.920488	1442.067715	336.191121	233.517031	1236.180237	112.696144	-260.535917	1180.689175	258.778422	274.664095	1097.643878	314.621750	-96.498890	1142.279161	443.767723
4224	42.23000	6.805658	940.768124	258.886788	-3.569745	1488.280273	357.422230	-6.162111	1576.693059	506.179598	80.215691	942.569785	257.028049	-66.604379	938.966462	260.745558	113.945301	532.516964	390.075364	-73.555393	512.973852	293.096735	108.547069	202.253195	216.090203	-62.181530	194.300399	58.498745	103.441893	174.067377	173.363857	-57.530111	171.256708	10.170744	108.311218	94.311401	338.879360	-72.287128	71.131189	167.819247	151.078962	1453.917258	273.534058	-175.340547	1440.181925	336.568110	234.551584	1234.089344	110.800739	-258.849776	1177.182357	261.306690	279.691137	1095.205230	313.143490	-93.534352	1140.510305	446.416857
4225	42.24000	7.834149	939.211320	258.416713	-1.771214	1486.786473	356.546865	-3.988029	1575.395276	505.164591	81.237093	941.033354	256.314498	-65.568799	937.389286	260.518957	114.036999	531.129738	394.290036	-72.922705	511.222661	291.277222	108.076073	197.098824	226.191781	-62.535173	198.722122	45.271305	103.093840	167.565725	183.981240	-57.829734	177.577192	-4.088200	107.792434	93.343728	353.314793	-72.970344	70.149155	149.627447	152.588666	1452.162553	271.491989	-173.760605	1438.296134	336.945100	235.586138	1231.998452	108.905335	-257.163634	1173.675540	263.834958	284.718179	1092.766582	311.665231	-90.569815	1138.741449	449.065991
4226	42.25000	8.862639	937.654517	257.946637	0.027317	1485.292674	355.671501	-1.813946	1574.097494	504.149583	82.258494	939.496924	255.600948	-64.533220	935.812110	260.292356	114.128696	529.742513	398.504707	-72.290017	509.471469	289.457709	107.605076	191.944453	236.293359	-62.888816	203.143846	32.043866	102.745786	161.064073	194.598623	-58.129356	183.897676	-18.347144	107.273649	92.376056	367.750226	-73.653559	69.167121	131.435647	154.098370	1450.407849	269.449920	-172.180664	1436.410343	337.322089	236.620692	1229.907560	107.009930	-255.477492	1170.168722	266.363227	289.745221	1090.327934	310.186972	-87.605277	1136.972593	451.715125
4227	42.26000	9.891130	936.097714	257.476561	1.825847	1483.798874	354.796136	0.360136	1572.799711	503.134576	83.279896	937.960493	254.887398	-63.497641	934.234934	260.065755	114.220394	528.355288	402.719379	-71.657329	507.720278	287.638196	107.134080	186.790082	246.394937	-63.242459	207.565569	18.816426	102.397733	154.562421	205.216006	-58.428978	190.218160	-32.606087	106.754864	91.408384	382.185659	-74.336774	68.185087	113.243847	155.608073	1448.653145	267.407851	-170.600723	1434.524553	337.699078	237.655246	1227.816668	105.114526	-253.791350	1166.661904	268.891495	294.772263	1087.889287	308.708713	-84.640739	1135.203737	454.364259
4228	42.27000	10.919620	934.540911	257.006486	3.624378	1482.305075	353.920771	2.534219	1571.501929	502.119568	84.301298	936.424063	254.173847	-62.462061	932.657759	259.839154	114.312092	526.968062	406.934050	-71.024641	505.969086	285.818683	106.663084	181.635712	256.496515	-63.596102	211.987293	5.588987	102.049679	148.060769	215.833389	-58.728601	196.538644	-46.865031	106.236080	90.440711	396.621092	-75.019990	67.203052	95.052047	157.117777	1446.898440	265.365782	-169.020781	1432.638762	338.076067	238.689799	1225.725776	103.219121	-252.105209	1163.155086	271.419763	299.799305	1085.450639	307.230454	-81.676201	1133.434881	457.013393
